<?xml version="1.0" standalone="no"?>
<!DOCTYPE svg PUBLIC "-//W3C//DTD SVG 20010904//EN"
 "http://www.w3.org/TR/2001/REC-SVG-20010904/DTD/svg10.dtd">
<svg version="1.0" xmlns="http://www.w3.org/2000/svg"
 width="1178.000000pt" height="359.000000pt" viewBox="0 0 1178.000000 359.000000"
 preserveAspectRatio="xMidYMid meet">

<g transform="translate(0.000000,359.000000) scale(0.100000,-0.100000)"
fill="#000000" stroke="none">
<path d="M0 1795 l0 -1795 5890 0 5890 0 0 1795 0 1795 -5890 0 -5890 0 0
-1795z m2620 1651 c602 -4 1106 -9 1119 -12 l24 -5 -7 -267 c-3 -147 -11 -438
-16 -647 -10 -375 -31 -1706 -34 -2147 -1 -125 -4 -229 -7 -230 -2 -2 -296 -1
-654 2 -497 4 -2333 1 -2737 -4 -31 -1 -59 2 -63 6 -4 4 -8 42 -8 85 -3 175
27 1171 43 1443 5 91 12 278 15 415 11 528 15 670 25 990 6 182 13 340 16 352
4 22 8 23 157 25 197 4 771 2 2127 -6z m7057 -1058 c-3 -8 -6 -5 -6 6 -1 11 2
17 5 13 3 -3 4 -12 1 -19z m-3289 -5 l202 -6 0 -99 0 -98 -275 6 -275 7 0
-120 0 -120 238 -9 237 -9 3 -89 c2 -49 -1 -93 -5 -97 -5 -5 -112 -9 -239 -9
l-231 -1 -5 -72 c-3 -40 -6 -142 -7 -227 -2 -85 -5 -157 -7 -159 -7 -8 -219 0
-227 8 -4 4 -5 254 -1 554 l7 547 191 0 c105 0 282 -3 394 -7z m1100 -29 c42
-14 98 -39 125 -56 174 -112 267 -364 227 -617 -13 -74 -47 -179 -66 -202 -8
-8 -14 -20 -14 -25 0 -12 -94 -102 -135 -130 -133 -90 -383 -109 -564 -43
-123 44 -239 156 -283 272 -68 177 -61 423 16 575 31 61 125 160 186 195 43
24 131 52 195 61 76 11 237 -4 313 -30z m1127 -14 c101 -8 129 -14 180 -39 98
-49 151 -128 162 -245 8 -89 -17 -168 -70 -225 -46 -47 -126 -91 -169 -91 -37
0 -35 -10 8 -39 62 -42 135 -138 267 -347 31 -50 57 -96 57 -103 0 -8 -40 -11
-133 -11 l-133 0 -48 68 c-26 37 -69 99 -96 137 -161 232 -179 247 -307 260
l-73 7 0 -231 0 -231 -114 0 -114 0 -4 103 c-2 56 -5 271 -6 477 -2 206 -5
404 -7 439 -3 37 0 70 6 77 12 14 376 10 594 -6z m1251 -8 c10 -6 51 -25 89
-43 142 -65 243 -205 279 -387 62 -317 -67 -581 -329 -670 -53 -18 -108 -24
-215 -23 -167 3 -287 42 -388 128 -53 45 -132 150 -132 175 0 8 -4 18 -8 23
-5 6 -17 37 -28 70 -15 47 -19 90 -19 202 l0 142 50 97 c57 111 149 218 217
252 39 19 84 33 158 46 45 8 306 -2 326 -12z m493 -297 l0 -20 -9 20 c-5 11
-9 29 -9 40 l0 20 9 -20 c5 -11 9 -29 9 -40z m18 -122 c-3 -10 -5 -4 -5 12 0
17 2 24 5 18 2 -7 2 -21 0 -30z m130 -665 c-3 -7 -5 -2 -5 12 0 14 2 19 5 13
2 -7 2 -19 0 -25z m-693 -563 c8 -62 -8 -31 -18 35 -5 30 -4 40 3 30 5 -8 12
-37 15 -65z"/>
<path d="M1700 3120 c-11 -11 -23 -38 -26 -59 -6 -35 -11 -42 -42 -52 -19 -6
-49 -20 -66 -30 -17 -10 -60 -20 -96 -24 -79 -7 -138 -23 -165 -44 -50 -41
-84 -59 -138 -76 -71 -22 -109 -58 -135 -128 -11 -28 -36 -83 -56 -120 -33
-62 -36 -76 -36 -151 0 -80 -1 -82 -34 -114 -37 -34 -48 -31 -60 21 -10 42
-41 35 -67 -15 -11 -24 -53 -73 -93 -109 l-71 -66 2 -75 c2 -60 -2 -86 -22
-136 -16 -39 -25 -81 -25 -115 0 -76 35 -203 67 -245 18 -24 27 -48 27 -76 1
-38 -1 -41 -24 -38 -14 1 -35 0 -48 -3 -20 -5 -23 -11 -20 -43 3 -36 4 -37 53
-46 48 -8 53 -12 125 -104 41 -53 77 -99 78 -104 5 -11 -28 2 -58 23 -23 17
-48 23 -77 20 -19 -2 -16 -58 4 -91 9 -16 45 -45 79 -65 38 -23 82 -60 110
-94 53 -65 99 -96 156 -105 60 -10 112 -41 154 -90 54 -65 71 -69 226 -61 125
7 134 6 151 -13 17 -19 17 -21 -5 -45 -30 -33 -107 -57 -182 -57 -34 0 -107
-9 -163 -21 -82 -17 -109 -19 -135 -10 -17 6 -33 9 -36 6 -10 -10 9 -36 35
-46 35 -13 29 -14 508 48 149 19 289 22 555 10 651 -28 616 -24 723 -72 66
-29 94 -33 56 -7 -14 9 -45 33 -70 53 -76 63 -96 69 -222 69 -79 0 -119 4
-132 13 -12 10 -14 16 -7 21 7 4 12 18 12 32 0 13 5 25 10 25 14 2 18 3 90 26
36 11 104 26 151 33 81 11 89 14 131 54 25 23 63 47 87 55 39 11 132 84 129
99 -4 19 25 62 68 104 45 44 48 50 52 108 4 58 7 63 43 87 20 13 40 32 43 40
5 12 9 13 21 3 13 -10 15 -8 15 14 0 14 5 26 12 26 6 0 8 3 5 6 -4 4 -12 2
-19 -3 -7 -6 -27 -14 -45 -17 l-32 -7 12 37 c18 58 101 96 135 62 6 -6 15 -8
19 -4 5 4 -1 14 -12 23 -23 17 -103 12 -115 -7 -10 -15 -30 -4 -30 16 0 9 -5
12 -11 8 -7 -4 -4 7 6 24 10 17 21 30 24 29 3 -1 34 28 68 64 67 73 83 110 83
198 0 30 5 81 12 113 11 54 11 60 -10 88 -17 23 -23 46 -25 98 -2 61 -7 76
-40 126 -21 32 -41 56 -43 53 -6 -6 19 -58 47 -97 25 -36 33 -89 14 -97 -12
-4 -13 -8 -4 -20 9 -11 9 -17 0 -26 -10 -9 -11 -8 -6 4 4 10 1 20 -4 24 -6 3
-9 11 -6 16 4 5 2 9 -4 9 -6 0 -8 6 -5 13 3 8 -1 14 -8 14 -20 0 -22 -75 -2
-106 l17 -26 -21 19 c-14 12 -22 31 -22 50 -1 42 -31 105 -69 140 -28 27 -31
35 -31 91 0 47 4 66 18 78 24 22 58 22 70 1 5 -9 12 -12 15 -7 10 16 -9 34
-44 39 -51 9 -89 -25 -89 -77 0 -41 -7 -47 -29 -26 -8 6 -12 8 -9 2 25 -59 44
-89 87 -138 47 -53 51 -62 51 -108 0 -28 -5 -49 -11 -49 -5 0 -7 5 -3 11 4 7
-1 7 -16 -1 -12 -7 -25 -21 -27 -31 -3 -10 -9 -19 -14 -19 -5 0 -9 -7 -9 -15
0 -8 -4 -15 -9 -15 -4 0 -20 -11 -35 -25 -15 -14 -32 -25 -38 -25 -10 0 -6
-26 9 -66 11 -31 -15 -6 -31 29 -19 41 -49 236 -47 302 1 28 1 80 1 117 0 54
3 69 17 76 20 10 44 5 55 -12 4 -6 10 -7 14 -4 3 4 -5 18 -19 32 -13 13 -28
41 -32 62 -18 101 -45 145 -142 238 -51 49 -93 95 -93 101 0 13 -46 58 -75 73
-11 6 -48 18 -83 26 -77 20 -123 47 -157 92 -16 21 -35 34 -49 34 -45 0 -54
-33 -31 -107 7 -21 4 -23 -33 -23 -23 0 -45 6 -52 15 -7 8 -18 15 -24 15 -6 0
-21 24 -32 53 -19 46 -20 53 -6 58 11 4 12 8 4 13 -7 4 -18 4 -24 0 -10 -5
-10 -4 -2 5 21 23 48 8 61 -34 l13 -40 -4 45 c-6 53 -28 74 -71 65 -47 -9 -49
-18 -20 -84 16 -34 25 -64 22 -67 -15 -16 -37 9 -51 60 -32 111 -127 176 -254
176 -116 0 -215 -67 -264 -176 l-19 -44 -24 17 c-14 11 -24 28 -25 43 0 38 36
144 50 148 18 6 6 -65 -15 -88 -9 -10 -12 -21 -7 -24 22 -13 61 106 42 129
-16 20 -26 19 -50 -5z m-50 -140 c0 -5 -4 -10 -10 -10 -5 0 -10 -6 -10 -14 0
-8 -4 -17 -9 -20 -5 -4 -7 4 -3 16 3 14 2 19 -6 14 -7 -4 -12 -14 -12 -22 0
-8 -4 -14 -10 -14 -5 0 -10 -7 -10 -15 0 -8 -1 -15 -2 -15 -2 -1 -47 -5 -100
-9 -98 -9 -98 -9 -162 -60 -35 -28 -67 -51 -70 -51 -4 0 -26 -9 -49 -19 -48
-22 -94 -69 -118 -121 -9 -19 -32 -55 -50 -80 -19 -25 -40 -61 -46 -80 l-13
-35 4 40 c3 37 89 229 127 282 8 12 42 32 75 44 66 25 98 42 134 75 30 28 119
52 198 55 31 1 59 5 62 9 11 13 55 40 67 40 7 0 13 -4 13 -10z m421 -13 c41
-28 59 -60 59 -110 0 -70 -49 -110 -134 -110 -53 0 -88 23 -111 73 -31 68 -7
134 57 160 41 16 94 11 129 -13z m573 -121 c17 -7 59 -18 93 -25 61 -13 133
-59 133 -85 0 -7 40 -51 89 -98 71 -70 93 -98 110 -142 30 -81 38 -136 19
-136 -11 0 -17 15 -22 46 -10 78 -44 130 -136 211 -47 42 -95 87 -107 101 -16
19 -36 27 -84 34 -39 5 -79 19 -107 36 -24 15 -52 32 -62 37 -31 18 -50 37
-50 49 0 6 7 3 15 -8 13 -17 15 -17 37 -1 13 9 16 15 8 13 -8 -3 -19 4 -25 15
-5 11 -16 22 -24 25 -8 3 -11 0 -7 -7 4 -6 1 -11 -8 -11 -19 0 -20 5 -5 31 10
20 13 18 56 -26 25 -25 60 -52 77 -59z m-949 45 c3 -11 12 -22 20 -25 8 -3 15
-18 15 -33 1 -77 86 -180 172 -209 61 -20 149 -13 214 18 47 22 119 93 134
133 5 14 15 25 23 25 13 0 104 -87 96 -92 -2 -2 -13 -8 -24 -14 -12 -6 -22
-25 -25 -45 -4 -30 -9 -34 -40 -37 -19 -2 -41 -8 -47 -14 -16 -13 -17 -60 -1
-76 15 -15 73 -14 118 2 33 12 39 11 105 -24 46 -24 92 -40 130 -44 40 -5 83
-20 130 -46 39 -21 90 -41 114 -45 61 -10 104 -30 145 -66 53 -46 79 -93 71
-129 -4 -16 -9 -30 -12 -30 -4 0 -32 25 -64 55 -32 30 -62 55 -69 55 -20 0
-28 -44 -21 -117 6 -68 10 -76 47 -115 34 -36 43 -54 52 -108 8 -44 21 -77 42
-105 48 -62 69 -116 76 -193 8 -83 1 -89 -53 -42 -33 29 -71 38 -107 24 -21
-8 -21 -60 -1 -108 14 -33 14 -39 0 -66 -9 -17 -43 -52 -76 -77 -47 -37 -68
-63 -99 -123 -30 -56 -53 -85 -93 -117 -58 -45 -80 -81 -99 -162 -12 -55 -24
-64 -37 -28 -5 12 -18 31 -30 41 -33 30 -263 42 -492 26 l-177 -12 -113 28
c-92 22 -118 33 -136 54 -12 15 -49 39 -82 54 -46 20 -76 44 -123 96 -53 60
-71 73 -132 96 -80 30 -132 73 -141 116 -4 16 -12 27 -18 25 -7 -2 -18 3 -26
10 -7 8 -16 12 -19 9 -9 -10 -4 -110 7 -138 6 -16 8 -28 6 -28 -18 0 -39 108
-30 150 7 31 39 42 48 18 2 -7 7 -10 11 -7 11 10 -5 38 -25 44 -28 9 -56 -11
-69 -50 -9 -28 -8 -45 4 -87 17 -57 14 -69 -12 -50 -9 7 -36 25 -60 40 -26 16
-45 37 -48 52 -3 14 -9 33 -15 42 -13 25 -11 31 7 24 14 -5 15 -4 5 8 -9 11
-8 15 4 20 8 3 15 12 15 21 0 8 7 15 15 15 8 0 18 15 23 38 27 115 34 140 48
166 17 35 17 33 0 39 -10 4 -13 1 -10 -7 3 -7 -2 -19 -11 -26 -13 -11 -14 -10
-9 6 7 18 7 18 -15 0 -16 -15 -18 -21 -9 -28 10 -6 10 -8 1 -8 -7 0 -13 -7
-13 -16 0 -8 -4 -13 -9 -9 -15 9 6 66 35 96 24 26 28 39 35 134 5 58 13 115
19 126 6 11 13 41 16 67 4 50 30 95 88 157 41 43 50 90 16 81 -11 -3 -29 -9
-40 -12 -11 -3 -24 -2 -30 1 -29 18 139 160 201 170 28 5 56 21 92 52 69 62
147 96 222 99 33 1 64 0 68 -3 5 -3 -9 -20 -30 -38 -30 -26 -50 -35 -95 -40
-31 -4 -65 -13 -75 -21 -17 -14 -17 -15 2 -10 11 2 40 8 65 11 56 9 86 25 130
70 19 19 40 35 46 35 7 0 15 3 17 8 3 4 -25 8 -61 10 -37 2 -68 5 -70 7 -12
12 74 114 107 127 4 2 11 17 15 33 7 28 2 25 -59 -35 -36 -36 -76 -80 -88 -98
-12 -18 -33 -35 -47 -39 -52 -13 -107 -43 -150 -83 -48 -44 -96 -70 -130 -70
-11 0 -20 -4 -20 -10 0 -5 -6 -10 -12 -10 -14 0 -128 -94 -141 -116 -4 -8 -17
-14 -29 -14 -17 0 -19 4 -14 25 9 37 54 133 66 140 15 10 12 -4 -9 -33 -17
-25 -34 -82 -24 -82 8 0 53 50 52 57 -4 25 2 33 19 25 20 -11 42 -5 42 10 0 7
-5 6 -14 -1 -10 -9 -17 -7 -27 6 -13 16 -12 17 3 5 12 -9 18 -10 23 -2 4 6 13
9 21 6 8 -3 20 8 30 29 9 19 20 35 25 35 20 0 25 2 42 17 9 9 17 24 17 33 0
11 8 16 22 16 15 -1 24 6 26 19 4 17 2 18 -12 6 -18 -15 -22 -1 -4 17 8 8 15
9 25 1 9 -8 13 -8 13 0 0 6 5 11 11 11 5 0 7 -4 4 -10 -3 -5 -2 -10 3 -10 15
0 22 28 9 34 -7 3 -2 3 11 0 18 -4 25 -1 29 14 3 12 11 23 19 26 8 3 14 12 14
20 0 10 8 13 25 10 14 -2 25 0 25 6 0 5 -9 10 -20 10 -11 0 -20 3 -20 8 0 4
19 6 43 4 28 -3 39 -1 32 6 -10 10 -42 15 -77 13 -9 -1 -37 -17 -62 -36 -25
-19 -46 -32 -46 -29 0 3 -7 -1 -15 -8 -34 -31 -46 -39 -71 -48 -17 -7 -24 -15
-20 -25 3 -8 1 -15 -3 -15 -5 0 -12 6 -14 13 -3 6 -6 1 -7 -13 -1 -23 -2 -23
-9 -5 -7 19 -9 18 -22 -5 -7 -14 -12 -28 -11 -32 1 -3 -5 -12 -13 -18 -8 -7
-15 -17 -15 -23 0 -14 -31 -47 -44 -47 -6 1 -1 9 12 20 13 11 21 24 18 29 -4
5 -2 12 3 15 4 3 11 19 14 35 7 32 53 72 103 89 17 5 58 30 90 54 74 55 96 64
164 67 77 2 111 11 139 32 31 25 68 25 76 0z m675 -51 c21 -18 41 -25 63 -21
5 1 7 -4 5 -11 -3 -8 -18 -12 -36 -11 -32 2 -43 -11 -19 -20 6 -3 3 -6 -8 -6
-29 -1 -65 30 -70 62 -5 23 -2 27 18 27 13 0 34 -9 47 -20z m173 -31 c20 -5
37 -13 37 -18 0 -15 76 -49 133 -60 46 -8 69 -20 114 -58 127 -108 182 -165
201 -211 22 -51 39 -142 27 -142 -5 0 -24 12 -44 28 -48 36 -101 72 -107 72
-3 0 -24 9 -48 20 -39 17 -74 51 -131 125 -18 23 -30 27 -106 34 -72 7 -93 13
-126 36 -33 24 -39 34 -40 67 -2 34 1 38 23 38 19 0 24 5 24 24 0 15 7 27 18
30 9 2 4 5 -13 4 -46 0 -51 1 -35 12 19 12 27 12 73 -1z m-1153 -13 c0 -2 -7
-7 -16 -10 -8 -3 -12 -2 -9 4 6 10 25 14 25 6z m1060 -108 c0 -14 -10 -9 -35
18 -33 36 -31 39 5 12 17 -12 30 -25 30 -30z m-1190 22 c0 -5 -5 -10 -11 -10
-5 0 -7 5 -4 10 3 6 8 10 11 10 2 0 4 -4 4 -10z m1195 -79 c49 -45 95 -61 179
-61 60 0 96 -17 96 -46 0 -21 48 -71 82 -85 18 -7 35 -15 38 -18 3 -3 30 -19
61 -35 65 -33 157 -111 146 -122 -4 -4 -24 9 -44 30 -45 46 -95 72 -165 87
-29 6 -78 26 -108 45 -38 23 -75 36 -121 43 -117 16 -269 115 -269 176 0 21 5
25 31 25 23 0 44 -11 74 -39z m-91 -56 c26 -20 13 -31 -45 -39 -50 -7 -77 9
-65 39 7 20 84 20 110 0z m-1234 -24 c0 -5 -7 -12 -16 -15 -14 -5 -15 -4 -4 9
14 17 20 19 20 6z m-290 -262 c0 -47 -22 -95 -48 -103 -39 -13 -63 -52 -72
-119 -5 -35 -21 -86 -34 -113 -34 -68 -41 -128 -21 -189 17 -53 48 -256 40
-263 -2 -3 -10 17 -17 43 -7 26 -18 50 -25 52 -7 3 -23 37 -35 77 -30 95 -29
205 1 261 16 29 21 57 21 110 0 78 16 120 45 120 33 0 65 23 58 42 -4 11 -3
14 5 9 7 -4 12 -3 12 3 0 5 -6 11 -12 14 -7 2 -1 4 15 4 24 0 26 -2 15 -15
-10 -13 -10 -14 0 -8 18 11 44 65 37 76 -4 6 -10 8 -15 5 -4 -3 -3 6 3 19 16
33 27 23 27 -25z m160 35 c0 -9 11 -11 35 -7 30 5 35 3 35 -14 0 -33 -43 -88
-68 -87 -20 1 -22 -4 -22 -65 -1 -38 -7 -77 -15 -91 -9 -16 -14 -55 -15 -112
0 -63 -4 -91 -15 -102 -8 -8 -15 -19 -15 -24 0 -5 -7 -15 -16 -22 -25 -22 -45
-82 -46 -140 -1 -55 -1 -55 -10 -17 -6 20 -14 37 -20 37 -5 0 -6 -5 -3 -11 4
-5 -4 -20 -18 -33 -13 -12 -27 -29 -30 -37 -5 -11 -8 -11 -20 4 -14 16 -15 15
-19 -17 -3 -23 1 -37 9 -40 7 -2 5 -3 -4 -2 -15 1 -19 15 -25 81 -3 44 -13
100 -22 125 -23 65 -20 102 14 178 17 37 35 94 39 127 8 54 12 63 58 105 28
25 56 60 63 78 23 60 130 130 130 86z m-205 -63 c-3 -6 -11 -11 -17 -11 -6 0
-6 6 2 15 14 17 26 13 15 -4z m2263 -201 c6 -19 16 -75 22 -125 6 -58 19 -107
35 -141 28 -58 32 -77 9 -48 -14 18 -15 18 -9 -6 4 -20 1 -18 -14 10 -11 19
-36 53 -55 74 -23 26 -37 54 -41 80 -12 83 -16 92 -54 129 -35 34 -39 43 -44
104 -3 37 -3 73 0 81 8 20 137 -114 151 -158z m-2330 130 c-13 -20 -28 -27
-28 -12 0 10 22 32 32 32 5 0 3 -9 -4 -20z m2669 -282 c-3 -7 -5 -2 -5 12 0
14 2 19 5 13 2 -7 2 -19 0 -25z m-50 -70 c-3 -8 -6 -5 -6 6 -1 11 2 17 5 13 3
-3 4 -12 1 -19z m83 -86 c0 -35 -7 -57 -24 -81 -14 -19 -27 -28 -31 -22 -3 6
-1 11 4 11 6 0 11 5 11 11 0 8 -4 8 -14 0 -8 -7 -12 -19 -10 -29 5 -20 -31
-70 -43 -59 -4 5 1 13 11 19 12 7 14 13 7 17 -12 8 18 76 34 76 6 0 16 4 24 9
11 7 11 10 0 17 -11 8 -11 11 4 20 9 5 17 18 17 27 0 15 -2 15 -10 2 -11 -17
-13 -10 -4 14 12 31 24 15 24 -32z m-87 -12 c-3 -11 -10 -23 -16 -27 -5 -3 -8
-2 -5 3 3 5 8 17 11 27 9 24 16 22 10 -3z m-156 -12 c-3 -8 -6 -5 -6 6 -1 11
2 17 5 13 3 -3 4 -12 1 -19z m-37 -105 c-1 -76 -3 -94 -12 -79 -8 14 -7 113 2
174 0 1 2 2 5 2 3 0 5 -44 5 -97z m129 -10 c-5 -21 -9 -41 -9 -45 0 -5 -5 -8
-10 -8 -7 0 -7 6 0 19 5 11 10 31 10 45 0 14 4 26 9 26 5 0 5 -16 0 -37z
m-2425 -38 c-4 -8 -8 -15 -10 -15 -2 0 -4 7 -4 15 0 8 4 15 10 15 5 0 7 -7 4
-15z m2154 -11 c18 -8 32 -20 32 -25 0 -5 -11 -2 -25 7 -14 9 -32 13 -45 9
-19 -6 -27 4 -13 18 9 10 16 9 51 -9z m187 -24 c3 -5 1 -10 -4 -10 -6 0 -11 5
-11 10 0 6 2 10 4 10 3 0 8 -4 11 -10z m-211 -32 c3 -16 2 -28 -3 -28 -11 0
-22 40 -15 52 8 12 10 9 18 -24z m-2224 7 c10 -12 10 -15 -3 -15 -8 0 -17 7
-21 15 -3 8 -2 15 3 15 5 0 14 -7 21 -15z m2455 -45 c3 -5 1 -10 -4 -10 -6 0
-11 5 -11 10 0 6 2 10 4 10 3 0 8 -4 11 -10z m-2469 -22 c4 -7 4 -10 -1 -6 -4
4 -16 3 -26 -3 -15 -7 -17 -6 -13 6 7 18 30 20 40 3z m-97 -7 c22 -14 22 -41
1 -41 -32 0 -50 11 -50 31 0 20 25 25 49 10z m191 -78 c0 -24 -4 -43 -10 -43
-5 0 -10 6 -10 13 0 6 -3 23 -7 36 -4 17 -3 22 5 17 8 -5 10 -2 6 8 -3 9 -10
16 -14 16 -7 0 -7 10 0 40 0 3 7 -6 15 -20 8 -14 14 -44 15 -67z m-65 18 c8
-26 29 -69 45 -94 15 -25 26 -48 23 -51 -13 -13 -113 107 -113 136 0 7 8 1 18
-14 23 -39 43 -38 23 0 -11 22 -23 72 -17 72 2 0 12 -22 21 -49z m2485 9 c0
-22 -10 -58 -22 -82 -13 -24 -24 -67 -26 -100 -4 -53 -8 -62 -39 -86 -19 -15
-52 -59 -74 -97 -43 -74 -93 -116 -155 -129 -17 -4 -45 -22 -62 -41 -31 -33
-49 -39 -164 -60 -55 -10 -48 10 7 24 25 6 43 16 40 21 -3 6 -1 10 5 10 7 0 9
7 6 15 -3 10 1 18 12 22 18 7 37 31 37 49 0 6 18 30 40 53 22 23 40 47 41 54
1 23 26 77 35 77 4 0 6 -8 3 -17 -5 -15 -4 -15 4 -3 6 8 8 18 6 22 -6 9 46 57
62 58 14 0 26 28 19 40 -3 4 8 13 25 18 21 8 28 16 24 26 -4 11 0 14 15 11 12
-2 19 0 17 4 -6 9 29 41 45 41 5 0 7 5 4 10 -3 6 1 13 9 16 9 3 14 10 11 14
-3 5 0 12 6 16 8 4 9 3 5 -4 -4 -7 -2 -12 4 -12 6 0 13 7 17 16 5 13 7 13 14
2 6 -9 9 -7 9 8 0 24 -32 38 -49 21 -7 -7 -11 -7 -11 -1 0 18 12 24 47 24 32
0 33 -1 33 -40z m-2530 20 c0 -5 -4 -10 -10 -10 -5 0 -10 5 -10 10 0 6 5 10
10 10 6 0 10 -4 10 -10z m160 -80 c0 -5 -5 -10 -11 -10 -5 0 -7 5 -4 10 3 6 8
10 11 10 2 0 4 -4 4 -10z m2180 -25 c-7 -9 -15 -13 -17 -11 -7 7 7 26 19 26 6
0 6 -6 -2 -15z m-2180 -5 c0 -5 -4 -10 -10 -10 -5 0 -10 5 -10 10 0 6 5 10 10
10 6 0 10 -4 10 -10z m115 -48 c-6 -7 -35 18 -35 31 0 5 9 2 20 -8 11 -10 18
-20 15 -23z m-115 7 c0 -6 -4 -7 -10 -4 -5 3 -10 11 -10 16 0 6 5 7 10 4 6 -3
10 -11 10 -16z m260 -49 c0 -5 -7 -7 -15 -4 -8 4 -15 8 -15 10 0 2 7 4 15 4 8
0 15 -4 15 -10z m75 -10 c8 -13 -5 -13 -25 0 -13 8 -13 10 2 10 9 0 20 -4 23
-10z m-340 -11 c11 -16 1 -19 -13 -3 -7 8 -8 14 -3 14 5 0 13 -5 16 -11z
m-145 -24 c0 -28 -15 -34 -24 -9 -10 25 -7 34 9 34 9 0 15 -9 15 -25z m30 0
c11 -13 10 -14 -4 -9 -9 3 -16 10 -16 15 0 13 6 11 20 -6z m514 -11 c3 -8 2
-12 -4 -9 -6 3 -10 10 -10 16 0 14 7 11 14 -7z m1626 -54 c0 -5 -4 -10 -10
-10 -5 0 -10 5 -10 10 0 6 5 10 10 10 6 0 10 -4 10 -10z m-50 -30 c0 -5 -5
-10 -11 -10 -5 0 -7 5 -4 10 3 6 8 10 11 10 2 0 4 -4 4 -10z m37 -36 c-3 -3
-12 -4 -19 -1 -8 3 -5 6 6 6 11 1 17 -2 13 -5z m-117 -18 c0 -3 -4 -8 -10 -11
-5 -3 -10 -1 -10 4 0 6 5 11 10 11 6 0 10 -2 10 -4z m-1744 -38 l29 -33 -32
29 c-31 28 -38 36 -30 36 2 0 16 -15 33 -32z m84 -10 c0 -6 -7 -5 -15 2 -8 7
-15 17 -15 22 0 6 7 5 15 -2 8 -7 15 -17 15 -22z m465 2 c3 0 2 7 -1 15 -10
24 10 17 56 -19 44 -35 60 -66 34 -66 -8 0 -14 5 -14 10 0 6 -6 10 -14 10 -8
0 -21 6 -28 13 -7 7 -25 20 -40 30 -16 10 -28 22 -28 28 0 6 7 3 16 -5 8 -9
17 -16 19 -16z m695 -8 c0 -4 -21 -18 -47 -31 -27 -13 -74 -38 -105 -57 l-57
-35 -39 25 c-21 13 -45 31 -53 38 -8 8 -22 17 -32 21 -32 12 -12 32 39 38 76
9 294 10 294 1z m-745 -20 c-3 -3 -11 0 -18 7 -9 10 -8 11 6 5 10 -3 15 -9 12
-12z m963 -22 c16 -30 10 -146 -11 -205 -19 -55 -45 -53 -74 5 -29 55 -32 172
-7 208 22 32 73 27 92 -8z m-705 -6 c50 -25 137 -115 137 -141 0 -13 -10 -29
-23 -38 -22 -14 -191 -75 -209 -75 -13 0 -8 42 12 100 11 30 19 81 20 113 0
64 7 69 63 41z m-768 -22 c-3 -3 -11 0 -18 7 -9 10 -8 11 6 5 10 -3 15 -9 12
-12z m616 -12 c21 0 39 -20 39 -43 0 -36 -23 -97 -37 -97 -7 0 -13 3 -13 8 0
11 -48 28 -110 40 l-55 11 68 -3 c37 -2 74 -9 82 -16 18 -15 20 -13 29 20 5
17 4 21 -2 12 -8 -11 -10 -11 -15 2 -3 8 -1 17 6 20 9 3 8 8 -3 15 -9 7 -11
11 -3 11 7 0 17 -8 22 -17 8 -15 10 -15 11 -3 0 9 -16 24 -35 34 -19 11 -35
24 -35 29 0 6 8 3 18 -6 10 -10 25 -17 33 -17z m665 -50 c19 -75 37 -181 31
-187 -7 -7 -108 42 -164 80 -73 48 -69 80 15 126 78 43 103 39 118 -19z m264
43 c0 -15 -24 -73 -31 -73 -3 0 -1 18 4 40 6 22 15 40 19 40 4 0 8 -3 8 -7z
m95 -82 c3 -6 -3 -9 -14 -8 -11 0 -17 5 -15 9 7 11 22 10 29 -1z m-1281 -37
c5 -14 4 -15 -9 -4 -17 14 -19 20 -6 20 5 0 12 -7 15 -16z m-84 -15 c0 -14
-16 -11 -29 5 -10 12 -8 13 8 9 12 -3 21 -9 21 -14z m312 -16 c27 -27 5 -32
-24 -6 -14 13 -39 17 -98 18 -44 0 -83 4 -87 9 -4 4 36 6 89 4 85 -3 100 -6
120 -25z m492 -24 c52 -28 136 -91 136 -103 0 -5 -63 -6 -162 -2 -168 7 -208
12 -208 26 0 11 160 99 180 100 8 0 33 -9 54 -21z m701 -138 c-6 -5 -25 10
-25 20 0 5 6 4 14 -3 8 -7 12 -15 11 -17z"/>
<path d="M1635 2880 c-3 -6 1 -7 9 -4 18 7 21 14 7 14 -6 0 -13 -4 -16 -10z"/>
<path d="M1526 2832 c-3 -5 1 -9 9 -9 8 0 15 4 15 9 0 4 -4 8 -9 8 -6 0 -12
-4 -15 -8z"/>
<path d="M1445 2770 c3 -5 8 -10 11 -10 2 0 4 5 4 10 0 6 -5 10 -11 10 -5 0
-7 -4 -4 -10z"/>
<path d="M1646 2745 c-8 -32 -3 -41 29 -47 30 -6 33 7 5 22 -15 8 -19 17 -15
31 4 10 2 19 -3 19 -6 0 -13 -11 -16 -25z"/>
<path d="M2102 2287 c-5 -7 -17 -36 -27 -64 -11 -29 -22 -53 -26 -53 -8 0 -25
42 -35 83 -6 27 -28 46 -40 34 -3 -2 6 -33 20 -68 13 -35 27 -72 30 -81 12
-37 40 -19 65 40 13 31 30 69 36 84 10 22 10 28 0 32 -8 3 -18 -1 -23 -7z"/>
<path d="M1750 2199 c0 -57 4 -88 10 -84 6 3 10 27 10 53 0 70 16 86 29 31 7
-24 16 -55 22 -68 8 -21 12 -22 23 -10 7 8 18 33 25 57 16 56 36 56 28 -1 -5
-38 5 -79 16 -67 3 3 7 45 10 93 l6 88 -26 -3 c-22 -2 -29 -12 -43 -53 -9 -27
-21 -49 -26 -48 -4 1 -15 25 -22 52 -12 43 -18 51 -38 51 -23 0 -24 -2 -24
-91z"/>
<path d="M2175 2227 c-8 -72 -5 -107 10 -110 6 -1 11 22 13 51 2 28 7 52 11
52 5 0 23 -22 41 -50 18 -27 38 -50 45 -50 14 0 25 52 25 123 0 35 -4 47 -15
47 -12 0 -15 -13 -15 -55 0 -30 -4 -55 -8 -55 -4 0 -23 25 -41 55 -18 30 -39
55 -46 55 -9 0 -16 -21 -20 -63z"/>
<path d="M1401 1943 c-5 -16 -21 -55 -35 -87 -14 -33 -23 -63 -20 -68 10 -15
24 -8 34 17 7 20 16 25 42 25 38 0 52 -8 61 -33 8 -21 34 -17 29 4 -2 8 -14
41 -26 74 -13 33 -26 68 -29 78 -10 27 -44 21 -56 -10z m51 -63 c2 -19 -1 -25
-17 -25 -23 0 -32 30 -14 51 15 18 26 8 31 -26z"/>
<path d="M1538 1964 c-5 -5 22 -95 47 -157 16 -39 45 -14 81 66 38 88 41 100
18 95 -9 -2 -28 -30 -42 -65 -14 -34 -29 -60 -33 -57 -5 2 -18 32 -30 64 -21
57 -28 67 -41 54z"/>
<path d="M1766 1949 c-22 -17 -26 -29 -26 -68 0 -62 28 -91 89 -91 61 0 81 14
81 55 0 34 -1 35 -40 35 -42 0 -54 -14 -20 -25 39 -12 18 -45 -29 -45 -39 0
-63 57 -45 105 11 28 52 37 87 20 37 -18 37 -18 37 0 0 37 -92 47 -134 14z"/>
<path d="M1970 1957 c0 -15 45 -151 55 -167 14 -23 43 13 74 91 18 44 30 83
27 86 -14 14 -35 -11 -56 -66 -12 -33 -26 -59 -30 -56 -4 2 -18 32 -30 65 -21
56 -40 78 -40 47z"/>
<path d="M2198 1959 c-40 -23 -14 -76 47 -96 20 -6 30 -16 30 -29 0 -28 -49
-31 -72 -5 -22 26 -33 27 -33 1 0 -24 28 -40 74 -40 37 0 66 21 66 48 0 28
-15 43 -56 57 -48 16 -59 45 -17 45 15 0 35 -4 43 -9 23 -15 33 -1 14 20 -19
21 -68 25 -96 8z"/>
<path d="M2360 1961 c0 -5 14 -12 31 -16 l31 -7 -4 -71 c-2 -48 1 -71 9 -74 9
-3 13 18 15 74 3 77 3 78 31 81 55 7 25 22 -43 22 -38 0 -70 -4 -70 -9z"/>
<path d="M2560 1903 c-17 -38 -34 -76 -40 -85 -13 -24 -13 -28 5 -28 8 0 19 9
25 20 16 29 83 28 104 -2 29 -41 29 -8 1 64 -47 121 -55 124 -95 31z m60 -9
c11 -29 6 -44 -15 -44 -20 0 -28 17 -21 46 8 31 24 31 36 -2z"/>
<path d="M1027 1906 c-4 -10 -7 -25 -6 -34 0 -11 4 -9 10 7 5 13 8 29 6 35 -2
5 -6 2 -10 -8z"/>
<path d="M1003 1820 c-3 -11 -9 -20 -14 -20 -5 0 -9 -4 -9 -10 0 -21 19 -8 29
20 5 17 8 30 5 30 -3 0 -8 -9 -11 -20z"/>
<path d="M1440 1556 l0 -96 39 0 c80 0 114 28 94 80 -5 14 -6 36 -2 47 13 35
-11 54 -74 60 l-57 5 0 -96z m103 50 c8 -20 -13 -36 -45 -36 -23 0 -28 4 -28
25 0 22 4 25 34 25 20 0 36 -6 39 -14z m-3 -71 c5 -3 10 -15 10 -26 0 -15 -7
-19 -39 -19 -42 0 -54 13 -39 43 9 17 42 18 68 2z"/>
<path d="M1645 1638 c-2 -7 -6 -51 -10 -96 -6 -78 -5 -84 12 -80 16 3 18 15
21 96 2 60 -1 92 -8 92 -6 0 -12 -6 -15 -12z"/>
<path d="M1735 1640 c-4 -7 -10 -50 -13 -96 l-5 -84 67 0 c51 0 66 3 66 14 0
11 -14 16 -47 18 l-48 3 0 72 c0 71 -7 95 -20 73z"/>
<path d="M1898 1564 c-2 -47 -1 -89 2 -94 8 -11 109 -3 125 10 17 14 19 43 5
70 -7 13 -7 21 0 25 16 10 12 40 -8 58 -12 11 -36 17 -70 17 l-51 0 -3 -86z
m107 46 c11 -18 -17 -41 -44 -38 -18 2 -27 10 -29 26 -3 19 1 22 32 22 19 0
38 -5 41 -10z m-17 -66 c16 -5 22 -13 20 -28 -2 -16 -11 -22 -40 -24 -34 -3
-38 -1 -38 21 0 37 11 43 58 31z"/>
<path d="M2099 1588 c0 -35 -2 -75 -4 -90 -2 -18 1 -28 9 -28 9 0 15 25 19 81
4 45 4 86 1 90 -14 24 -24 3 -25 -53z"/>
<path d="M2367 1643 c-10 -15 -10 -178 -1 -178 11 0 24 167 14 178 -4 5 -10 5
-13 0z"/>
<path d="M2460 1630 c-11 -11 -20 -26 -20 -33 0 -19 29 -42 65 -54 35 -11 47
-48 18 -55 -23 -6 -63 8 -63 22 0 5 -5 10 -11 10 -6 0 -9 -10 -7 -22 4 -31 55
-45 94 -27 54 26 37 90 -27 103 -32 6 -50 33 -29 46 14 9 52 1 61 -13 4 -5 12
-6 19 -2 19 12 -19 45 -52 45 -15 0 -37 -9 -48 -20z"/>
<path d="M2182 1553 l3 -87 55 0 c66 -1 79 18 15 22 l-45 3 0 75 c0 60 -3 74
-15 74 -13 0 -15 -14 -13 -87z"/>
<path d="M2370 2649 c0 -5 0 -12 0 -16 0 -5 4 -8 9 -8 5 0 13 -4 18 -9 5 -5 3
-6 -4 -2 -7 4 -13 2 -13 -3 0 -17 15 -13 35 9 18 20 18 21 0 14 -12 -5 -16 -4
-12 3 4 6 -2 13 -13 16 -11 3 -20 1 -20 -4z"/>
<path d="M2280 2559 c0 -5 5 -7 10 -4 6 3 10 8 10 11 0 2 -4 4 -10 4 -5 0 -10
-5 -10 -11z"/>
<path d="M2310 2562 c0 -4 9 -8 20 -9 11 -1 18 2 15 8 -7 11 -35 12 -35 1z"/>
<path d="M675 2141 c-6 -11 9 -23 19 -14 9 9 7 23 -3 23 -6 0 -12 -4 -16 -9z"/>
<path d="M760 1620 c0 -5 5 -10 10 -10 6 0 10 5 10 10 0 6 -4 10 -10 10 -5 0
-10 -4 -10 -10z"/>
<path d="M775 1321 c-3 -5 -2 -12 3 -15 5 -3 9 1 9 9 0 17 -3 19 -12 6z"/>
<path d="M1610 960 c6 -11 16 -20 22 -20 6 0 3 9 -7 20 -10 11 -20 20 -22 20
-2 0 1 -9 7 -20z"/>
<path d="M3266 2097 c3 -10 9 -15 12 -12 3 3 0 11 -7 18 -10 9 -11 8 -5 -6z"/>
<path d="M3408 1383 c7 -3 16 -2 19 1 4 3 -2 6 -13 5 -11 0 -14 -3 -6 -6z"/>
<path d="M2630 720 c-18 -12 120 -12 195 0 41 6 29 8 -65 9 -63 0 -122 -4
-130 -9z"/>
<path d="M7181 2169 c-34 -10 -94 -50 -119 -79 -7 -8 -27 -44 -44 -79 -27 -54
-32 -78 -36 -162 -12 -244 93 -386 294 -397 110 -6 165 13 231 79 74 74 96
150 91 306 -3 105 -6 124 -32 175 -32 66 -63 100 -124 135 -36 22 -59 26 -135
29 -51 2 -107 -1 -126 -7z"/>
<path d="M8318 2152 l-58 -3 0 -130 0 -130 171 1 c94 1 184 6 200 12 16 5 40
23 54 40 46 55 27 153 -38 191 -23 12 -226 24 -329 19z"/>
<path d="M9557 2131 c-70 -28 -114 -66 -142 -120 -51 -101 -58 -280 -15 -395
26 -68 95 -142 163 -174 67 -32 184 -34 248 -5 103 46 168 152 177 290 16 251
-101 410 -308 420 -57 2 -86 -1 -123 -16z"/>
</g>
</svg>
